<svg xmlns="http://www.w3.org/2000/svg" enable-background="new 0 0 64 64" viewBox="0 0 64 64"><path fill="none" stroke="#221f20" stroke-linecap="round" stroke-linejoin="round" stroke-miterlimit="10" stroke-width="2" d="M53.9,10.1C41.8-2,22.2-2,10.1,10.1s-12.1,31.7,0,43.8s31.7,12.1,43.8,0S66,22.2,53.9,10.1z M15,49
		c-8.4-8.4-9.3-21.4-2.7-30.8l33.4,33.4C36.4,58.2,23.4,57.3,15,49z M51.6,45.8L18.2,12.4C27.6,5.8,40.6,6.7,49,15
		C57.3,23.4,58.2,36.4,51.6,45.8z"/><path fill="none" stroke="#221f20" stroke-linecap="round" stroke-linejoin="round" stroke-miterlimit="10" stroke-width="2" d="M33.8 39.6c-.6 1.2-1.4 2.3-2.5 3.4-.4.4-.9.8-1.3 1.1-.2-.3-.5-.5-.7-.8-2.7-2.7-6.3-3.4-8.1-1.6-1.1 1.1-1.3 2.8-.7 4.6-1.2-.3-2.3-1-3.1-1.8-3.4-3.4-2.7-9.7 1.5-13.9 1-1 2.2-1.8 3.4-2.4L33.8 39.6zM42.8 31.5c-1 1-2 1.7-3.2 2.3L28.1 22.2c.6-1.1 1.4-2.2 2.3-3.2 4.3-4.3 10.5-4.9 13.9-1.5C47.8 21 47.1 27.2 42.8 31.5z"/><ellipse cx="26" cy="46.6" fill="none" stroke="#221f20" stroke-linecap="round" stroke-linejoin="round" stroke-miterlimit="10" stroke-width="2" rx="4.6" ry="6.9" transform="rotate(-45.001 25.988 46.569)"/><line x1="38.8" x2="39.6" y1="19.4" y2="20.2" fill="none" stroke="#221f20" stroke-linecap="round" stroke-linejoin="round" stroke-miterlimit="10" stroke-width="2"/><line x1="40.6" x2="41.3" y1="23.9" y2="24.6" fill="none" stroke="#221f20" stroke-linecap="round" stroke-linejoin="round" stroke-miterlimit="10" stroke-width="2"/><line x1="37.9" x2="38.6" y1="28.1" y2="28.9" fill="none" stroke="#221f20" stroke-linecap="round" stroke-linejoin="round" stroke-miterlimit="10" stroke-width="2"/><line x1="34.1" x2="34.9" y1="22.6" y2="23.4" fill="none" stroke="#221f20" stroke-linecap="round" stroke-linejoin="round" stroke-miterlimit="10" stroke-width="2"/><line x1="27.7" x2="27" y1="37.8" y2="37" fill="none" stroke="#221f20" stroke-linecap="round" stroke-linejoin="round" stroke-miterlimit="10" stroke-width="2"/><line x1="23.3" x2="22.5" y1="36" y2="35.3" fill="none" stroke="#221f20" stroke-linecap="round" stroke-linejoin="round" stroke-miterlimit="10" stroke-width="2"/><line x1="19.1" x2="18.3" y1="38.7" y2="38" fill="none" stroke="#221f20" stroke-linecap="round" stroke-linejoin="round" stroke-miterlimit="10" stroke-width="2"/></svg>