<svg aria-hidden="true" xmlns="http://www.w3.org/2000/svg">
  <defs>
    <symbol id="icon-nut-free" enable-background="new 0 0 64 64" viewBox="0 0 64 64">
      <path fill="#221f20" stroke="#221f20" stroke-linecap="round" stroke-linejoin="round" stroke-miterlimit="10" stroke-width="2" d="M53.9,10.1C41.8-2,22.2-2,10.1,10.1s-12.1,31.7,0,43.8s31.7,12.1,43.8,0S66,22.2,53.9,10.1z M15,49
		c-8.4-8.4-9.3-21.4-2.7-30.8l33.4,33.4C36.4,58.2,23.4,57.3,15,49z M51.6,45.8L18.2,12.4C27.6,5.8,40.6,6.7,49,15
		C57.3,23.4,58.2,36.4,51.6,45.8z"
      />
      <path fill="#E38B21" stroke="#221f20" stroke-linecap="round" stroke-linejoin="round" stroke-miterlimit="10" stroke-width="2" d="M33.8 39.6c-.6 1.2-1.4 2.3-2.5 3.4-.4.4-.9.8-1.3 1.1-.2-.3-.5-.5-.7-.8-2.7-2.7-6.3-3.4-8.1-1.6-1.1 1.1-1.3 2.8-.7 4.6-1.2-.3-2.3-1-3.1-1.8-3.4-3.4-2.7-9.7 1.5-13.9 1-1 2.2-1.8 3.4-2.4L33.8 39.6zM42.8 31.5c-1 1-2 1.7-3.2 2.3L28.1 22.2c.6-1.1 1.4-2.2 2.3-3.2 4.3-4.3 10.5-4.9 13.9-1.5C47.8 21 47.1 27.2 42.8 31.5z"/><ellipse cx="26" cy="46.6" fill="#E38B21" stroke="#221f20" stroke-linecap="round" stroke-linejoin="round" stroke-miterlimit="10" stroke-width="2" rx="4.6" ry="6.9" transform="rotate(-45.001 25.988 46.569)"/><line x1="38.8" x2="39.6" y1="19.4" y2="20.2" fill="none" stroke="#221f20" stroke-linecap="round" stroke-linejoin="round" stroke-miterlimit="10" stroke-width="2"/><line x1="40.6" x2="41.3" y1="23.9" y2="24.6" fill="none" stroke="#221f20" stroke-linecap="round" stroke-linejoin="round" stroke-miterlimit="10" stroke-width="2"/><line x1="37.9" x2="38.6" y1="28.1" y2="28.9" fill="none" stroke="#221f20" stroke-linecap="round" stroke-linejoin="round" stroke-miterlimit="10" stroke-width="2"/><line x1="34.1" x2="34.9" y1="22.6" y2="23.4" fill="none" stroke="#221f20" stroke-linecap="round" stroke-linejoin="round" stroke-miterlimit="10" stroke-width="2"/><line x1="27.7" x2="27" y1="37.8" y2="37" fill="none" stroke="#221f20" stroke-linecap="round" stroke-linejoin="round" stroke-miterlimit="10" stroke-width="2"/><line x1="23.3" x2="22.5" y1="36" y2="35.3" fill="none" stroke="#221f20" stroke-linecap="round" stroke-linejoin="round" stroke-miterlimit="10" stroke-width="2"/><line x1="19.1" x2="18.3" y1="38.7" y2="38" fill="none" stroke="#221f20" stroke-linecap="round" stroke-linejoin="round" stroke-miterlimit="10" stroke-width="2"/>
    </symbol>
    <symbol id="icon-gluten-free" enable-background="new 0 0 256 256" viewBox="0 0 256 256">
      <path fill="#ff4a73" d="M249,128c0,21.94-5.84,42.52-16.05,60.26c-15.76,27.39-41.94,48.03-73.13,56.5C149.68,247.53,139.01,249,128,249h-0.05C61.14,248.97,7,194.81,7,128C7,61.17,61.17,7,128,7S249,61.17,249,128z"/><path fill="#ea2a6a" d="M249,128c0,21.94-5.84,42.52-16.05,60.26c-15.76,27.39-41.94,48.03-73.13,56.5C149.68,247.53,139.01,249,128,249h-0.05c-3.34,0-6.66-0.14-9.93-0.41c7.48-0.61,14.77-1.91,21.8-3.83c31.19-8.47,57.37-29.11,73.13-56.5C223.16,170.52,229,149.94,229,128c0-63.46-48.85-115.51-111-120.59C121.3,7.14,124.63,7,128,7C194.83,7,249,61.17,249,128z"/><path fill="#f973a3" d="M138.02,248.59c-3.3,0.27-6.65,0.41-10.02,0.41h-0.05C61.14,248.97,7,194.81,7,128C7,61.17,61.17,7,128,7c3.37,0,6.7,0.14,10,0.41C75.85,12.49,27,64.54,27,128C27,191.47,75.86,243.52,138.02,248.59z"/><path fill="#ffbb98" d="M128.232,35.86L128.232,35.86L128.232,35.86L128.232,35.86L128.232,35.86c-40.58,33.99-0.002,53.915,0,53.917l0,0h0l0,0l0,0C128.235,89.776,168.813,69.85,128.232,35.86z"/><path fill="#ffbb98" d="M84.872,85.581L84.872,85.581L84.872,85.581L84.872,85.581L84.872,85.581c1.653,52.909,42.392,33.314,42.394,33.313l0,0l0,0l0,0l0,0C127.267,118.891,136.671,74.674,84.872,85.581z"/><path fill="#ffbb98" d="M171.294 85.581L171.294 85.581 171.294 85.581 171.294 85.581 171.294 85.581c-1.653 52.909-42.392 33.314-42.394 33.313l0 0 0 0 0 0 0 0C128.899 118.891 119.495 74.674 171.294 85.581zM84.872 125.835L84.872 125.835 84.872 125.835 84.872 125.835 84.872 125.835c1.653 52.909 42.392 33.314 42.394 33.313l0 0 0 0 0 0 0 0C127.267 159.145 136.671 114.928 84.872 125.835z"/><path fill="#ffbb98" d="M171.294 125.835L171.294 125.835 171.294 125.835 171.294 125.835 171.294 125.835c-1.653 52.909-42.392 33.314-42.394 33.313l0 0 0 0 0 0 0 0C128.899 159.145 119.495 114.928 171.294 125.835zM84.872 166.088L84.872 166.088 84.872 166.088 84.872 166.088 84.872 166.088c1.653 52.909 42.392 33.314 42.394 33.313l0 0 0 0 0 0 0 0C127.267 199.398 136.671 155.181 84.872 166.088z"/><path fill="#ffbb98" d="M171.294,166.088L171.294,166.088L171.294,166.088L171.294,166.088L171.294,166.088c-1.653,52.909-42.392,33.314-42.394,33.313l0,0l0,0l0,0l0,0C128.899,199.398,119.495,155.181,171.294,166.088z"/><path fill="#ffcaa6" d="M135.73 84.71c-3.95 3.33-7.5 5.07-7.5 5.07s-40.58-19.93 0-53.92c2.9 2.43 5.39 4.79 7.5 7.07C116.99 63.15 127.28 77.57 135.73 84.71zM119.2 121.53c-11.97 2.65-33.14 1.89-34.33-35.95 9.08-1.91 16.27-2.13 21.97-1.19-.028.004-.055.007-.083.011-4.037.52-6.847 4.244-6.39 8.289C102.516 111.724 110.662 119.191 119.2 121.53zM148.586 120.642c1.005.307 2.141.616 3.374.888-11.19 3.08-23.06-2.63-23.06-2.64 0 0-.67-3.14-.67-7.53 0-11.33 4.43-31.02 36.09-26.97-18.16 3-21.09 17.75-21.09 26.97 0 .949.031 1.839.08 2.651C143.497 117.106 145.621 119.735 148.586 120.642zM119.21 161.79c-11.97 2.64-33.15 1.89-34.34-35.96 9.08-1.91 16.28-2.13 21.98-1.18-.022.003-.044.005-.066.008-4.049.503-6.873 4.238-6.415 8.292C102.519 151.986 110.664 159.452 119.21 161.79zM148.586 160.902c1.005.308 2.141.616 3.374.888-11.19 3.07-23.06-2.64-23.06-2.64s-.67-3.14-.67-7.54c0-11.32 4.43-31.01 36.08-26.96-18.15 2.99-21.08 17.74-21.08 26.96 0 .952.031 1.846.081 2.661C143.497 157.366 145.621 159.995 148.586 160.902zM119.2 202.04c-11.97 2.64-33.14 1.89-34.33-35.95 9.08-1.91 16.28-2.13 21.98-1.18-.022.003-.044.005-.066.008-4.049.503-6.874 4.238-6.416 8.292C102.52 192.237 110.663 199.702 119.2 202.04zM148.586 201.152c1.005.308 2.141.616 3.374.888-11.19 3.07-23.06-2.64-23.06-2.64s-.67-3.14-.67-7.53c0-11.33 4.43-31.02 36.08-26.96-18.15 2.99-21.08 17.74-21.08 26.96 0 .948.031 1.839.08 2.651C143.497 197.616 145.621 200.245 148.586 201.152z"/><path fill="#5f266d" d="M128,3C59.075,3,3,59.075,3,128c0,68.894,56.052,124.969,125,125c11.169,0,22.229-1.475,32.868-4.38c31.609-8.584,59.146-29.857,75.549-58.365C247.266,171.405,253,149.878,253,128C253,59.075,196.925,3,128,3z M11,128C11,63.486,63.486,11,128,11c30.821,0,58.891,11.985,79.811,31.533l-38.57,38.58c-9.824-1.767-18.137-1.652-24.889,0.321c2.647-3.464,4.823-7.653,5.605-12.549c1.874-11.731-4.571-23.874-19.156-36.09c-1.486-1.244-3.65-1.244-5.137,0c-14.584,12.216-21.029,24.358-19.156,36.09c0.79,4.944,3,9.169,5.682,12.653c-7.464-2.276-16.868-2.245-28.142,0.13c-1.897,0.399-3.234,2.102-3.174,4.039c0.517,16.552,4.79,28.186,12.704,34.728c-3.015,0.295-6.183,0.777-9.531,1.482c-1.897,0.398-3.235,2.101-3.175,4.038c0.465,15.017,4.062,26.023,10.681,32.836l-2.463,2.462c-1.603,0.246-3.292,0.554-5.044,0.923c-1.895,0.398-3.232,2.098-3.174,4.034c0.032,1.063,0.086,2.097,0.15,3.112l-38.485,38.485C22.987,186.887,11,158.816,11,128z M152.867,179.922c-1.393-1.714-3.913-1.976-5.627-0.582l-14.994,12.186c0.042-5.255,1.145-12.325,6.004-17.173c5.66-5.646,15.367-7.321,28.879-4.991c-0.933,13.681-4.856,22.716-11.681,26.879c-5.975,3.645-13.276,2.949-18.41,1.701l15.248-12.392C154,184.155,154.261,181.636,152.867,179.922z M155.448,155.987c-5.975,3.644-13.275,2.948-18.409,1.7l15.247-12.393c1.714-1.394,1.975-3.913,0.581-5.627c-1.393-1.716-3.913-1.975-5.627-0.582l-14.994,12.187c0.042-5.255,1.145-12.326,6.003-17.173c5.66-5.646,15.364-7.322,28.879-4.991C166.196,142.789,162.273,151.823,155.448,155.987z M155.448,115.734c-5.977,3.646-13.277,2.949-18.41,1.7l15.248-12.393c1.714-1.394,1.975-3.913,0.581-5.627c-1.393-1.714-3.913-1.976-5.627-0.582l-14.994,12.186c0.042-5.255,1.145-12.326,6.004-17.173c5.66-5.646,15.367-7.32,28.879-4.991C166.195,102.536,162.272,111.57,155.448,115.734z M128.218,53.235c-2.209,0-4,1.791-4,4v25.133c-4.128-3.273-9.087-8.542-9.904-15.419c-0.943-7.938,3.737-16.604,13.918-25.791c10.181,9.187,14.861,17.854,13.918,25.791c-0.819,6.893-5.798,12.17-9.932,15.442V57.235C132.218,55.026,130.427,53.235,128.218,53.235z M103.88,185.549l15.262,12.404c-20.02,4.906-28.649-7.752-30.107-28.589c9.289-1.582,20.905-2.004,28.045,4.212c5.56,4.839,6.809,12.37,6.855,17.962l-15.009-12.198c-1.715-1.394-4.234-1.132-5.627,0.582C101.906,181.636,102.166,184.155,103.88,185.549z M103.879,145.297l15.26,12.4c-5.421,1.322-13.25,2.014-19.415-2.37c-6.215-4.408-9.805-13.222-10.689-26.223c14.812-2.55,25.029-0.294,30.397,6.716c3.639,4.76,4.468,10.974,4.504,15.467l-15.016-12.203c-1.715-1.39-4.234-1.129-5.626,0.586C101.902,141.386,102.164,143.904,103.879,145.297z M103.88,105.042l15.248,12.393c-5.133,1.249-12.433,1.944-18.41-1.7c-6.825-4.164-10.748-13.198-11.681-26.88c13.511-2.331,23.219-0.654,28.878,4.991c4.859,4.848,5.962,11.918,6.004,17.173l-14.994-12.186c-1.715-1.394-4.234-1.133-5.627,0.582C101.906,101.129,102.166,103.648,103.88,105.042z M229.483,186.265c-15.356,26.688-41.129,46.602-70.717,54.637c-9.958,2.72-20.309,4.099-30.814,4.099c-30.799-0.014-58.85-11.999-79.759-31.536l34.084-34.084c4.669,23.69,21.136,32.076,41.94,25.457v15.304c0,2.209,1.791,4,4,4s4-1.791,4-4v-15.231c3.246,1.006,7.754,2.033,12.681,2.033c4.779,0,9.941-0.967,14.69-3.856c9.842-5.988,15.125-18.395,15.703-36.872c0.061-1.938-1.277-3.64-3.174-4.039c-3.349-0.705-6.529-1.199-9.547-1.493c7.922-6.569,12.204-18.214,12.72-34.721c0.061-1.938-1.277-3.64-3.174-4.039c-3.339-0.703-6.512-1.199-9.522-1.493c7.794-6.448,12.044-17.851,12.661-34.019l38.21-38.219C233.015,69.108,245,97.179,245,128C245,148.479,239.634,168.627,229.483,186.265z"/><path fill="#5f266d" d="M232 128.68c-.041-2.184-1.823-3.927-3.998-3.927-.023 0-.048 0-.071.001-2.207.038-3.966 1.856-3.93 4.064l.002.416c0 2.242-.167 14.041-3.47 26.193-.58 2.132.679 4.329 2.811 4.909.352.095.705.141 1.052.141 1.76 0 3.374-1.171 3.857-2.952 3.57-13.133 3.75-25.871 3.75-28.291L232 128.68zM220.875 166.919c-1.943-1.052-4.371-.329-5.421 1.616-.708 1.309-1.466 2.555-2.253 3.702-1.25 1.822-.786 4.312 1.036 5.562.692.475 1.479.701 2.259.701 1.274 0 2.527-.607 3.302-1.737.946-1.379 1.852-2.867 2.693-4.423C223.542 170.396 222.819 167.97 220.875 166.919z"/>
    </symbol>
    <symbol id="icon-soy-free" enable-background="new 0 0 256 256" viewBox="0 0 256 256"><path fill="#f45d64" d="M128,18.4C67.5,18.4,18.4,67.5,18.4,128S67.5,237.6,128,237.6S237.6,188.5,237.6,128
      c0.4-60.1-48-109.2-108.2-109.6C129,18.4,128.5,18.4,128,18.4z M201.5,192.7l-32.2-32.2c-1.2-1.2-2.8-1.8-4.4-1.8l0,0
      c-3.4,0-6.2,2.8-6.2,6.2c0,1.7,0.7,3.2,1.8,4.4l32.2,32.2c-40.6,35.7-102.5,31.8-138.2-8.8c-32.6-37-32.6-92.5,0-129.5l35.1,35
      c1.2,1.2,2.8,1.8,4.4,1.8l0,0c3.4,0,6.2-2.8,6.2-6.2c0-1.7-0.7-3.2-1.8-4.4l-35.1-35c40.6-35.7,102.5-31.8,138.2,8.8
      C234.1,100.3,234.1,155.7,201.5,192.7L201.5,192.7z"/><path fill="#f9828b" d="M128,6.8C61.1,6.8,6.8,61.1,6.8,128S61.1,249.2,128,249.2S249.2,194.9,249.2,128
      C249.6,61.5,196.1,7.3,129.6,6.8C129.1,6.8,128.5,6.8,128,6.8z M128,237.6c-60.5,0-109.6-49.1-109.6-109.6S67.5,18.4,128,18.4
      S237.6,67.5,237.6,128C237.5,188.5,188.5,237.5,128,237.6z"/><path fill="#9ce59c" d="M170.1,103.3c2.2-10.7-0.4-20.9-6.1-26.7c-1.6-1.6-2.5-3.9-2.3-6.1c0.6-7.5-0.1-15-2.1-22.2
      c-0.1-0.4-0.6-0.7-1-0.6c-0.4,0.1-0.6,0.4-0.6,0.8c0.5,9.2-0.8,15.2-4,20.2c-1.2,1.8-2.9,3-5,3.5c-8.5,2.1-16.1,11-18.6,22.8
      c-0.8,4-1,8-0.5,12c0.7,5.7-1.3,11.5-5.6,15.5c-3.6,3.4-6.4,7.6-8.3,12.1c-1.2,2.9-2.1,6-2.5,9.1c-0.6,5-3.3,9.5-7.4,12.4
      c-2,1.4-3.9,3.1-5.5,5c-3.3,3.6-5.7,8-7,12.7c-0.6,2.2-1.5,4.3-2.7,6.2c-4.2,6.8-4.2,14.5,0.4,18.6s12.3,3.2,18.5-1.7
      c1.8-1.4,3.7-2.5,5.9-3.3c4.6-1.8,8.6-4.7,11.8-8.4c2.8-3.1,5-6.8,6.4-10.7c1.3-3.6,3.8-6.7,7-8.8c5.6-3.8,10-9.2,12.5-15.4
      c2.2-5.2,3.1-10.8,2.7-16.4c-0.4-5.1,1.5-10,5.1-13.6C165.8,115.6,168.8,109.7,170.1,103.3z"/><path fill="#6dcc6d" d="M93.7,173.8c1.3-4.7,3.7-9.1,7-12.7c1.6-1.9,3.5-3.5,5.5-5c4.1-2.9,6.8-7.4,7.4-12.4c0.4-3.1,1.3-6.2,2.5-9.1
      c1.9-4.6,4.7-8.7,8.3-12.1c4.2-4,6.3-9.7,5.6-15.5c-0.5-4-0.3-8.1,0.5-12c2.5-11.8,10.1-20.7,18.6-22.8c2-0.5,3.8-1.7,5-3.5
      c3.2-5.1,4.6-11.1,4-20.2c0-0.4,0.2-0.8,0.6-0.8c-0.2-0.4-0.7-0.6-1.1-0.4c-0.2,0.1-0.4,0.3-0.4,0.6c-1.7,9-4.4,14.5-8.7,18.7
      c-1.5,1.4-3.6,2.2-5.7,2.2c-8.8,0-18.3,6.8-23.5,17.7c-1.8,3.6-2.9,7.5-3.4,11.6c-0.6,5.8-4,10.9-9.1,13.7c-4.3,2.5-8,5.8-10.9,9.8
      c-1.9,2.5-3.4,5.3-4.6,8.2c-1.8,4.7-5.5,8.4-10.2,10.3c-2.3,0.9-4.5,2.1-6.5,3.5c-4.1,2.7-7.4,6.4-9.8,10.7c-1.1,2-2.5,3.8-4.1,5.4
      c-5.7,5.6-7.5,13.1-4,18.2s11.2,6,18.4,2.7c2.1-0.9,4.2-1.6,6.5-1.9c4.2-0.6,8.2-2,11.9-4.3C93.6,174.3,93.6,174,93.7,173.8z"/><path fill="#231f20" d="M98.6,203.7c-3.3,0.1-6.4-1.1-8.9-3.2c-5.4-4.8-5.8-13.8-0.8-21.8c1.1-1.7,1.9-3.6,2.4-5.5
      c1.4-5.1,4-9.8,7.5-13.7c1.8-2,3.8-3.8,5.9-5.3c3.5-2.5,5.8-6.4,6.4-10.7c0.5-3.3,1.4-6.6,2.7-9.7c2-4.9,5-9.3,8.8-13
      c3.7-3.4,5.5-8.4,4.8-13.3c-0.5-4.3-0.4-8.6,0.5-12.9c2.6-12.4,10.8-22.4,20.4-24.7c1.4-0.3,2.7-1.2,3.5-2.4
      c3-4.8,4.1-10.4,3.7-18.8c-0.1-1.8,1.3-3.4,3.1-3.5c1.6-0.1,3,0.9,3.4,2.4c2,7.5,2.8,15.3,2.2,23c-0.1,1.6,0.5,3.1,1.6,4.2
      c6.5,6.6,9.1,17.7,6.8,29l0,0c-1.3,6.9-4.6,13.2-9.5,18.3c-3.1,3-4.7,7.3-4.4,11.6c0.5,6-0.5,12-2.9,17.6
      c-2.7,6.8-7.4,12.5-13.4,16.6c-2.8,1.8-4.9,4.4-6,7.5c-1.5,4.3-3.8,8.2-6.9,11.6c-3.5,4-7.9,7.1-12.8,9c-1.9,0.7-3.6,1.7-5.2,3
      C107.8,201.9,103.3,203.6,98.6,203.7z M159.3,62.8c-0.7,2.6-1.8,5-3.2,7.3c-1.5,2.3-3.8,3.9-6.5,4.6c-7.8,1.9-14.5,10.3-16.7,20.9
      c-0.8,3.7-0.9,7.5-0.5,11.2c0.8,6.5-1.5,13.1-6.3,17.6c-3.3,3.2-5.9,7-7.7,11.3c-1.1,2.7-1.9,5.6-2.3,8.5
      c-0.8,5.7-3.8,10.8-8.4,14.1c-1.9,1.3-3.6,2.9-5.1,4.6c-3,3.3-5.2,7.3-6.4,11.7c-0.6,2.4-1.6,4.8-3,6.9c-3.6,5.8-3.6,12.3-0.1,15.4
      s10,2.4,15.3-1.8c2-1.6,4.2-2.8,6.5-3.7c4.2-1.7,7.9-4.3,10.9-7.7c2.6-2.9,4.6-6.2,5.9-9.9c1.5-4.2,4.3-7.7,8-10.1
      c5.2-3.5,9.2-8.5,11.5-14.3c2.1-4.8,2.9-10,2.5-15.2c-0.5-5.8,1.7-11.5,5.8-15.6c4.2-4.4,7-9.8,8.1-15.8l0,0
      c2-9.5-0.1-19.1-5.4-24.4c-2.1-2.1-3.2-5.1-3-8.1C159.4,67.7,159.4,65.3,159.3,62.8z M170.1,103.3L170.1,103.3z"/><path fill="#231f20" d="M66.8,185c-5.1,0-9.5-2-12.1-5.7c-4.1-6-2.3-14.8,4.4-21.4c1.4-1.4,2.7-3,3.6-4.8c2.6-4.6,6.2-8.6,10.6-11.5
      c2.2-1.5,4.6-2.8,7-3.8c4-1.6,7.2-4.9,8.7-8.9c1.2-3.1,2.9-6.1,4.9-8.8c3.1-4.3,7.1-7.9,11.7-10.5c4.4-2.4,7.3-6.8,7.8-11.8
      c0.5-4.3,1.7-8.5,3.6-12.4c5.5-11.5,15.8-19.2,25.7-19.2c1.5,0,2.9-0.5,3.9-1.5c4.1-3.9,6.5-9.1,8-17.4c0.3-1.8,2-3,3.8-2.7
      c1,0.2,1.9,0.9,2.4,1.8c0.4,0.9,0.3,1.9-0.4,2.7c0.4,8.9-1,15.3-4.5,20.8c-1.5,2.3-3.8,3.9-6.5,4.6c-7.8,1.9-14.5,10.3-16.7,20.9
      c-0.8,3.7-0.9,7.5-0.5,11.2c0.8,6.5-1.5,13.1-6.3,17.6c-3.3,3.2-5.9,7-7.7,11.3c-1.1,2.7-1.9,5.6-2.3,8.5
      c-0.7,5.7-3.8,10.8-8.4,14.1c-1.9,1.3-3.6,2.9-5.1,4.6c-3,3.3-5.2,7.3-6.4,11.7l0,0c0,0.2-0.1,0.4-0.2,0.5l-0.1,0.2
      c-0.2,0.6-0.6,1.1-1.1,1.4c-3.9,2.4-8.3,4-12.8,4.6c-2,0.3-3.9,0.8-5.8,1.7C73.2,184.2,70,185,66.8,185z M144.7,71.1
      c-0.6,0.1-1.3,0.2-1.9,0.2c-8,0-16.6,6.6-21.2,16.3c-1.6,3.4-2.7,7-3.1,10.8c-0.8,6.5-4.6,12.3-10.3,15.6c-4,2.3-7.4,5.4-10.1,9.1
      c-1.8,2.4-3.2,4.9-4.3,7.7c-2.1,5.3-6.3,9.6-11.6,11.7c-2.1,0.8-4.2,1.9-6.1,3.2c-3.7,2.5-6.8,5.9-9,9.8c-1.2,2.2-2.7,4.2-4.5,6
      c-4.8,4.8-6.4,11.1-3.7,15s9.1,4.7,15.3,1.9c2.3-1,4.7-1.7,7.2-2.1c3.5-0.5,7-1.7,10.1-3.4c1.4-5,4-9.5,7.4-13.4
      c1.8-2,3.8-3.8,5.9-5.3c3.5-2.5,5.8-6.4,6.4-10.7c0.5-3.3,1.4-6.6,2.7-9.7c2-4.9,5-9.3,8.8-13c3.7-3.4,5.5-8.4,4.8-13.3
      c-0.5-4.3-0.4-8.6,0.5-12.9C130.2,83.7,136.7,74.8,144.7,71.1L144.7,71.1z M93.7,173.8L93.7,173.8z M153.3,64.8
      c-0.9,1.3-2,2.5-3.1,3.6c-0.6,0.5-1.2,1-1.9,1.4l0.1,0c1.4-0.3,2.7-1.2,3.5-2.4C152.4,66.5,152.9,65.7,153.3,64.8z"/><path fill="#231f20" d="M128,240.1c-61.9,0-112.1-50.2-112.1-112.1C15.9,66.1,66.1,15.9,128,15.9c61.9,0,112.1,50.2,112.1,112.1
      C240,189.9,189.9,240,128,240.1z M128,20.9c-59.1,0-107.1,48-107.1,107.1s48,107.1,107.1,107.1s107.1-48,107.1-107.1v0
      c0.4-58.8-46.9-106.7-105.7-107.1C128.9,20.9,128.5,20.9,128,20.9z M128.1,228.4c-55.4,0.1-100.5-44.8-100.5-100.3
      c0-24.5,8.9-48.1,25.1-66.5c0.9-1,2.5-1.1,3.5-0.2c0,0,0.1,0.1,0.1,0.1l35.1,35c0.7,0.7,1.6,1.1,2.6,1.1c2.1,0,3.7-1.7,3.7-3.7
      c0-1-0.4-1.9-1.1-2.6l-35.1-35c-1-1-1-2.6,0-3.5c0,0,0.1-0.1,0.1-0.1C103.3,16,166.8,20,203.4,61.7c33.4,37.9,33.4,94.7,0,132.7
      c-0.5,0.5-1.1,0.8-1.8,0.8c-0.7,0-1.4-0.2-1.8-0.7l-32.2-32.2c-0.7-0.7-1.6-1.1-2.6-1.1c-2.1,0-3.7,1.7-3.7,3.7
      c0,1,0.4,1.9,1.1,2.6l32.2,32.2c1,1,1,2.6,0,3.5c0,0-0.1,0.1-0.1,0.1C176.1,219.5,152.5,228.4,128.1,228.4L128.1,228.4z M54.6,67
      C20.9,107.5,26.4,167.7,67,201.4c35.4,29.4,86.7,29.4,122.1,0l-30.3-30.3c-3.4-3.5-3.3-9,0.2-12.3c3.4-3.3,8.8-3.3,12.1,0
      l30.3,30.3c33.7-40.5,28.1-100.7-12.4-134.4c-35.4-29.4-86.7-29.4-122,0l33.2,33.1c3.4,3.4,3.5,8.9,0.1,12.3
      c-3.4,3.4-8.9,3.5-12.3,0.1c0,0-0.1-0.1-0.1-0.1L54.6,67z"/><path fill="#231f20" d="M128,251.7C59.7,251.7,4.3,196.3,4.3,128S59.7,4.3,128,4.3S251.7,59.7,251.7,128
      C251.6,196.3,196.3,251.6,128,251.7z M128,9.3C62.5,9.3,9.3,62.5,9.3,128S62.5,246.7,128,246.7S246.7,193.5,246.7,128
      c0.4-65.1-52-118.2-117.1-118.7C129,9.3,128.5,9.3,128,9.3z M128,240.1c-61.9,0-112.1-50.2-112.1-112.1
      C15.9,66.1,66.1,15.9,128,15.9c61.9,0,112.1,50.2,112.1,112.1C240,189.9,189.9,240,128,240.1z M128,20.9
      c-59.1,0-107.1,48-107.1,107.1s48,107.1,107.1,107.1s107.1-48,107.1-107.1v0c0.4-58.8-46.9-106.7-105.7-107.1
      C128.9,20.9,128.5,20.9,128,20.9z"/><path fill="#ffcd29" d="M39.3,234h-1.8v-1.8c0-1.4-1.1-2.5-2.5-2.5s-2.5,1.1-2.5,2.5v1.8h-1.8c-1.4,0-2.5,1.1-2.5,2.5s1.1,2.5,2.5,2.5
      h1.8v1.8c0,1.4,1.1,2.5,2.5,2.5s2.5-1.1,2.5-2.5V239h1.8c1.4,0,2.5-1.1,2.5-2.5S40.7,234,39.3,234L39.3,234z"/><path fill="#60bae2" d="M227.8,32.4c0-0.2-0.1-0.3-0.1-0.5c-0.1-0.1-0.1-0.3-0.2-0.4c-0.1-0.1-0.2-0.3-0.3-0.4c-1-0.9-2.5-0.9-3.5,0
      c-0.1,0.1-0.2,0.2-0.3,0.4c-0.2,0.3-0.3,0.6-0.4,0.9c-0.1,0.3-0.1,0.7,0,1c0,0.2,0.1,0.3,0.1,0.5c0.1,0.2,0.1,0.3,0.2,0.4
      c0.1,0.1,0.2,0.3,0.3,0.4c1,1,2.5,1,3.5,0c0,0,0,0,0,0c0.1-0.1,0.2-0.2,0.3-0.4c0.1-0.1,0.2-0.3,0.2-0.4c0.1-0.1,0.1-0.3,0.1-0.5
      C227.9,33,227.9,32.7,227.8,32.4z"/><path fill="#6dcc6d" d="M61.3,253c0-0.2-0.1-0.3-0.1-0.5c-0.1-0.1-0.1-0.3-0.2-0.4c-0.1-0.1-0.2-0.3-0.3-0.4c-1-0.9-2.5-0.9-3.5,0
      c-0.1,0.1-0.2,0.2-0.3,0.4c-0.2,0.3-0.3,0.6-0.4,0.9c-0.1,0.3-0.1,0.7,0,1c0,0.2,0.1,0.3,0.1,0.5c0.1,0.2,0.1,0.3,0.2,0.4
      c0.1,0.1,0.2,0.3,0.3,0.4c1,1,2.5,1,3.5,0c0,0,0,0,0,0c0.1-0.1,0.2-0.2,0.3-0.4c0.1-0.1,0.2-0.3,0.2-0.4c0.1-0.1,0.1-0.3,0.1-0.5
      C61.4,253.7,61.4,253.3,61.3,253z"/><path fill="#f45d64" d="M225.2,8.2c-4.1-0.8-7.2-4-8-8c0-0.1-0.1-0.2-0.2-0.2c-0.1,0-0.1,0.1-0.2,0.2c-0.8,4.1-4,7.2-8,8
      c-0.1,0-0.2,0.1-0.2,0.2c0,0.1,0.1,0.1,0.2,0.2c4.1,0.8,7.2,4,8,8c0,0.1,0.1,0.2,0.2,0.2c0.1,0,0.1-0.1,0.2-0.2c0.8-4.1,4-7.2,8-8
      c0.1,0,0.2-0.1,0.2-0.2C225.4,8.2,225.3,8.2,225.2,8.2z"/>
    </symbol>
  </defs>
</svg>